<?xml version="1.0" encoding="UTF-8" standalone="no"?>
<!-- Uploaded to: SVG Repo, www.svgrepo.com, Generator: SVG Repo Mixer Tools -->

<svg
   version="1.1"
   id="Layer_1"
   viewBox="0 0 347.479 347.479"
   xml:space="preserve"
   sodipodi:docname="folder2.svg"
   inkscape:version="1.2.2 (732a01da63, 2022-12-09)"
   xmlns:inkscape="http://www.inkscape.org/namespaces/inkscape"
   xmlns:sodipodi="http://sodipodi.sourceforge.net/DTD/sodipodi-0.dtd"
   xmlns="http://www.w3.org/2000/svg"
   xmlns:svg="http://www.w3.org/2000/svg"><defs
   id="defs505"><linearGradient
     id="paint0_linear_103_1789"
     x1="16"
     y1="0"
     x2="16"
     y2="32"
     gradientUnits="userSpaceOnUse"
     gradientTransform="matrix(2.4651319,-0.21567109,0.21567109,2.4651319,248.31507,28.60423)"><stop
       stop-color="#00E676"
       id="stop416" /><stop
       offset="1"
       stop-color="#00C853"
       id="stop418" /></linearGradient></defs><sodipodi:namedview
   id="namedview503"
   pagecolor="#ffffff"
   bordercolor="#000000"
   borderopacity="0.25"
   inkscape:showpageshadow="2"
   inkscape:pageopacity="0.0"
   inkscape:pagecheckerboard="0"
   inkscape:deskcolor="#d1d1d1"
   showgrid="false"
   inkscape:zoom="0.82822978"
   inkscape:cx="33.807043"
   inkscape:cy="219.14208"
   inkscape:window-width="1920"
   inkscape:window-height="1001"
   inkscape:window-x="-9"
   inkscape:window-y="-9"
   inkscape:window-maximized="1"
   inkscape:current-layer="Layer_1" />
<g
   id="g500"
   transform="translate(0,58)">
	<path
   style="fill:#e0b03b"
   d="M 292.251,79.766 H 103.644 v -8.544 c 0,-5.974 -4.888,-10.862 -10.862,-10.862 H 30.414 c -5.975,0 -10.862,4.888 -10.862,10.862 v 8.544 H 16.294 C 7.332,79.766 0,87.098 0,96.059 v 174.766 c 0,8.961 7.332,16.293 16.293,16.293 h 275.958 c 8.961,0 16.293,-7.332 16.293,-16.293 V 96.059 c 0.001,-8.961 -7.331,-16.293 -16.293,-16.293 z"
   id="path494" />
	<rect
   x="23.243"
   y="95.385002"
   style="fill:#ffffff"
   width="262.05899"
   height="176.11301"
   id="rect496" />
	<path
   style="fill:#ffc843"
   d="m 312.426,271.293 c -2.135,8.704 -11.213,15.825 -20.175,15.825 H 16.293 c -8.961,0 -14.547,-7.121 -12.412,-15.825 l 34.598,-141.05 c 2.135,-8.704 11.213,-15.825 20.175,-15.825 h 275.958 c 8.961,0 14.547,7.121 12.412,15.825 z"
   id="path498" />
</g><path
   d="m 132.77058,114.41597 c -3.11785,-11.63598 -4.67679,-17.45401 -3.60312,-22.505174 0.94443,-4.443122 3.27121,-8.473233 6.64685,-11.512698 3.8376,-3.455385 9.65565,-5.014325 21.29161,-8.132173 l 25.36973,-6.797797 c 11.63607,-3.117876 17.45411,-4.676816 22.50502,-3.603102 4.44318,0.944421 8.47335,3.27119 11.51281,6.646833 3.45542,3.837593 5.01436,9.655633 8.13221,21.291603 l 6.7978,25.369728 c 3.11788,11.63607 4.67681,17.45411 3.60306,22.50503 -0.94441,4.44317 -3.27124,8.47337 -6.64694,11.51284 -3.83735,3.45536 -9.65539,5.0143 -21.29146,8.13217 l -25.36973,6.7978 c -11.63596,3.11785 -17.45401,4.67679 -22.50517,3.6031 -4.44312,-0.94443 -8.47325,-3.27128 -11.51272,-6.64697 -3.45534,-3.83736 -5.01428,-9.6554 -8.13215,-21.29147 z"
   fill="#b30b00"
   id="path371"
   style="stroke-width:3.39626" /><path
   d="m 210.14093,113.95234 c -5.54915,-3.55375 -16.68507,1.63538 -19.42987,2.6859 -5.10588,-3.04245 -9.17975,-6.95212 -10.79592,-8.4093 0.24826,-4.79214 0.0628,-10.05873 -1.19737,-14.761714 -1.1814,-4.409048 -4.06835,-8.32171 -8.60764,-7.105413 -1.71539,0.459639 -2.90877,1.724526 -3.37284,3.42407 -1.05633,4.063527 1.6816,10.851477 6.78614,17.320347 -0.29805,5.75057 -1.04037,14.41618 -2.79193,21.46197 -4.10216,2.98941 -12.82373,10.32761 -12.26385,15.84832 0.10787,1.54629 1.15229,3.15667 2.53231,3.73202 1.45876,0.86928 2.96715,0.78015 4.3968,0.39708 5.96882,-1.59934 9.69899,-11.69561 11.94021,-20.48718 3.1164,-2.09521 8.04067,-5.3049 13.23695,-7.64236 7.82988,4.20279 13.77496,3.51556 16.63427,2.74941 4.00324,-1.07267 4.96035,-3.21936 5.10258,-4.83268 0.37648,-1.59733 -0.71121,-3.51115 -2.16984,-4.38047 z m -3.21533,4.01195 c 0.029,1.25238 -1.08563,2.81121 -3.81641,2.91283 -3.38165,-0.039 -6.59902,-0.7521 -9.43753,-2.19681 1.92269,-0.83023 6.5902,-2.71096 10.17884,-3.04246 1.22236,-0.0125 2.88828,0.48625 3.0751,2.32644 z M 169.84014,90.214641 c 0.12854,-0.664524 0.62159,-1.111676 1.19339,-1.264889 1.42965,-0.383076 2.18794,1.303979 2.58174,2.773664 0.65939,3.603794 1.10162,7.541444 0.82406,11.081244 -4.01007,-5.81699 -4.98449,-10.596541 -4.59919,-12.590019 z m 8.58428,33.181239 c 0.72082,-3.02851 1.10747,-8.44842 1.20671,-10.36524 2.13849,2.26234 5.49936,4.51221 7.02723,5.63863 0.21682,-0.33375 -4.62449,2.18425 -8.23394,4.72661 z m -7.87431,9.35583 c -2.24428,7.49284 -4.85886,12.60397 -7.14631,13.2169 -0.28593,0.0766 -0.85777,0.22983 -1.22246,0.0125 -0.44344,-0.51127 -0.8869,-1.02253 -0.75848,-1.68702 -0.34416,-2.4281 3.36437,-6.88725 9.12725,-11.54241 z"
   fill="#ffffff"
   id="path373"
   style="stroke-width:3.39626" /><path
   d="m 311.42244,23.08305 -47.33053,4.140883 c -8.7133,0.762316 -15.15886,8.443833 -14.39654,17.157134 l 4.14088,47.33054 c 0.76232,8.713253 8.44384,15.158873 17.15713,14.396553 l 47.33054,-4.14088 c 8.71326,-0.76232 15.15886,-8.443894 14.39655,-17.157148 L 328.57958,37.479594 C 327.81727,28.76629 320.1357,22.320738 311.42244,23.08305 Z"
   fill="url(#paint0_linear_103_1789)"
   id="path408"
   style="fill:url(#paint0_linear_103_1789);stroke-width:2.47455" /><path
   d="m 268.36846,88.662901 c -1.08183,2.737133 1.09507,5.655904 4.02718,5.399374 l 26.67844,-2.334061 c 2.93203,-0.256519 4.5691,-3.508966 3.02847,-6.016664 L 286.42917,60.20019 c -1.70778,-2.779968 -5.85636,-2.417013 -7.0557,0.617294 z"
   fill="#ffffff"
   id="path410"
   style="stroke-width:2.47455" /><path
   d="m 292.03372,86.592458 c -1.08178,2.73713 1.09517,5.655896 4.02723,5.399371 l 18.78998,-1.643911 c 2.93202,-0.256519 4.5691,-3.508966 3.02847,-6.016664 l -11.03902,-17.96801 c -1.70779,-2.779974 -5.85635,-2.417023 -7.0557,0.617295 z"
   fill="#ffffff"
   fill-opacity="0.6"
   id="path412"
   style="stroke-width:2.47455" /><path
   d="m 309.89425,51.03756 c 4.35663,-0.381156 7.57942,-4.222051 7.19826,-8.578702 -0.38116,-4.35665 -4.22195,-7.57943 -8.57858,-7.198275 -4.35662,0.381154 -7.57942,4.221919 -7.19826,8.57857 0.38115,4.356652 4.22195,7.579563 8.57858,7.198407 z"
   fill="#ffffff"
   id="path414"
   style="stroke-width:2.47455" />
</svg>
