<?xml version="1.0" encoding="UTF-8" standalone="no"?>
<!-- Uploaded to: SVG Repo, www.svgrepo.com, Generator: SVG Repo Mixer Tools -->

<svg
   width="800px"
   height="800px"
   viewBox="-2 0 32 32"
   version="1.1"
   id="svg364"
   sodipodi:docname="multiple.svg"
   inkscape:version="1.2.2 (732a01da63, 2022-12-09)"
   xmlns:inkscape="http://www.inkscape.org/namespaces/inkscape"
   xmlns:sodipodi="http://sodipodi.sourceforge.net/DTD/sodipodi-0.dtd"
   xmlns="http://www.w3.org/2000/svg"
   xmlns:svg="http://www.w3.org/2000/svg"
   xmlns:rdf="http://www.w3.org/1999/02/22-rdf-syntax-ns#"
   xmlns:cc="http://creativecommons.org/ns#"
   xmlns:dc="http://purl.org/dc/elements/1.1/"
   xmlns:sketch="http://www.bohemiancoding.com/sketch/ns">
  <sodipodi:namedview
     id="namedview366"
     pagecolor="#ffffff"
     bordercolor="#000000"
     borderopacity="0.25"
     inkscape:showpageshadow="2"
     inkscape:pageopacity="0.0"
     inkscape:pagecheckerboard="0"
     inkscape:deskcolor="#d1d1d1"
     showgrid="false"
     inkscape:zoom="0.50875"
     inkscape:cx="629.97543"
     inkscape:cy="652.57985"
     inkscape:window-width="1359"
     inkscape:window-height="1030"
     inkscape:window-x="32"
     inkscape:window-y="0"
     inkscape:window-maximized="0"
     inkscape:current-layer="svg364" />
  <title
     id="title355">multiple-documents-files</title>
  <desc
     id="desc357">Created with Sketch Beta.</desc>
  <defs
     id="defs359" />
  <g
     id="Page-1"
     stroke="none"
     stroke-width="1"
     fill="none"
     fill-rule="evenodd"
     sketch:type="MSPage">
    <g
       id="Icon-Set"
       sketch:type="MSLayerGroup"
       transform="translate(-206.000000, -99.000000)"
       fill="#000000">
      <path
         d="M229,107 C227.935,107 227,105.065 227,104.026 L227,101.031 L227,101.029 L232,107 L229,107 L229,107 Z M232,123 C232,124.019 231.05,125 230,125 L215,125 C213.95,125 213,124.019 213,123 L213,103 C213,101.981 213.95,101 215,101 L225,101 C224.984,103.304 225,105.025 225,105.025 C225,107.103 226.87,109 229,109 L232,109 L232,123 L232,123 Z M225,129 L210,129 C208.95,129 208,128.019 208,127 L208,107 C208,105.981 208.855,105.032 209.905,105.032 L211,105 L211,123 C211,125.059 212.884,127 215,127 L227,127 C227,128.019 226.049,129 225,129 L225,129 Z M227,99 L215,99 C212.884,99 211,100.941 211,103 L209.845,103.027 C207.729,103.027 206,104.941 206,107 L206,127 C206,129.059 207.884,131 210,131 L225,131 C227.116,131 229,129.059 229,127 L230,127 C232.116,127 234,125.059 234,123 L234,107.023 L227,99 L227,99 Z M227,113.018 L218,113.018 C217.448,113.018 217,113.465 217,114.017 C217,114.568 217.448,115.016 218,115.016 L227,115.016 C227.552,115.016 228,114.568 228,114.017 C228,113.465 227.552,113.018 227,113.018 L227,113.018 Z M227,118.013 L218,118.013 C217.448,118.013 217,118.46 217,119.012 C217,119.563 217.448,120.011 218,120.011 L227,120.011 C227.552,120.011 228,119.563 228,119.012 C228,118.46 227.552,118.013 227,118.013 L227,118.013 Z"
         id="multiple-documents-files"
         sketch:type="MSShapeGroup" />
    </g>
  </g>
  <metadata
     id="metadata368">
    <rdf:RDF>
      <cc:Work
         rdf:about="">
        <dc:title>multiple-documents-files</dc:title>
      </cc:Work>
    </rdf:RDF>
  </metadata>
  <rect
     style="fill:#ffffff;stroke-width:0.04"
     id="rect370"
     width="13.837838"
     height="10.299755"
     x="9.5184278"
     y="12.108108" />
  <path
     d="m 16.515971,20.198448 c -1.512805,0 -2.743902,-1.231097 -2.743902,-2.743903 0,-1.512804 1.231097,-2.743901 2.743902,-2.743901 1.512805,0 2.743903,1.231097 2.743903,2.743901 0,1.512806 -1.231098,2.743894 -2.743903,2.743894 z m 8.184146,-2.947863 c -1.619816,-3.258842 -4.75519,-5.283843 -8.184146,-5.283843 -3.428965,0 -6.5643293,2.025001 -8.1841463,5.283843 l -0.100608,0.20396 0.100608,0.203961 c 1.619817,3.258842 4.7551893,5.283843 8.1841463,5.283843 3.428965,0 6.56433,-2.025001 8.184146,-5.283843 l 0.100608,-0.203961 z"
     fill-rule="evenodd"
     id="path121"
     style="display:inline;stroke-width:0.00863" />
</svg>
